<svg xmlns="http://www.w3.org/2000/svg" width="1200" height="630" viewBox="0 0 1200 630" role="img" aria-label="Tlo FB - Poradnik zdrowia">
  <defs>
    <linearGradient id="bg" x1="0" y1="0" x2="1" y2="1">
      <stop offset="0%" stop-color="#0b1220"/>
      <stop offset="45%" stop-color="#1d4ed8"/>
      <stop offset="100%" stop-color="#0891b2"/>
    </linearGradient>
    <radialGradient id="glow" cx="50%" cy="50%" r="50%">
      <stop offset="0%" stop-color="#ffffff" stop-opacity="0.45"/>
      <stop offset="100%" stop-color="#ffffff" stop-opacity="0"/>
    </radialGradient>
  </defs>

  <rect width="1200" height="630" fill="url(#bg)"/>

  <circle cx="980" cy="120" r="180" fill="url(#glow)"/>
  <circle cx="170" cy="560" r="220" fill="#ffffff" opacity="0.07"/>
  <circle cx="1050" cy="540" r="130" fill="#ffffff" opacity="0.08"/>

  <rect x="72" y="72" width="1056" height="486" rx="30" fill="#ffffff" opacity="0.07"/>

  <g transform="translate(116,124)">
    <rect x="0" y="0" width="74" height="74" rx="18" fill="#ffffff" opacity="0.18"/>
    <path d="M37 18v38M18 37h38" stroke="#ffffff" stroke-width="8" stroke-linecap="round"/>

    <text x="98" y="32" fill="#dbeafe" font-family="Arial, sans-serif" font-size="28" font-weight="700" letter-spacing="1.2">BLOG PACJENTA</text>
    <text x="0" y="110" fill="#ffffff" font-family="Arial, sans-serif" font-size="72" font-weight="800">Poradnik zdrowia</text>
    <text x="0" y="176" fill="#ffffff" font-family="Arial, sans-serif" font-size="72" font-weight="800">pytania i odpowiedzi</text>

    <text x="0" y="246" fill="#e2e8f0" font-family="Arial, sans-serif" font-size="36" font-weight="500">Kliknij temat i przeczytaj pe³ny artyku³.</text>

    <g transform="translate(0,286)">
      <rect x="0" y="0" width="258" height="54" rx="27" fill="#ffffff" opacity="0.15"/>
      <text x="22" y="35" fill="#ffffff" font-family="Arial, sans-serif" font-size="30" font-weight="600">Czytelnie i konkretnie</text>

      <rect x="280" y="0" width="318" height="54" rx="27" fill="#ffffff" opacity="0.15"/>
      <text x="302" y="35" fill="#ffffff" font-family="Arial, sans-serif" font-size="30" font-weight="600">Bez medycznego slangu</text>

      <rect x="620" y="0" width="338" height="54" rx="27" fill="#ffffff" opacity="0.15"/>
      <text x="642" y="35" fill="#ffffff" font-family="Arial, sans-serif" font-size="30" font-weight="600">Dla pacjentów z Opolskiego</text>
    </g>
  </g>
</svg>
